M48
; DRILL file {KiCad 9.0.7} date 2026-01-13T16:00:21+0100
; FORMAT={-:-/ absolute / metric / decimal}
; #@! TF.CreationDate,2026-01-13T16:00:21+01:00
; #@! TF.GenerationSoftware,Kicad,Pcbnew,9.0.7
; #@! TF.FileFunction,Plated,1,2,PTH
FMAT,2
METRIC
; #@! TA.AperFunction,Plated,PTH,ComponentDrill
T1C0.889
; #@! TA.AperFunction,Plated,PTH,ComponentDrill
T2C1.000
; #@! TA.AperFunction,Plated,PTH,ComponentDrill
T3C1.500
%
G90
G05
T1
X107.38Y-24.0
X107.38Y-26.54
X107.38Y-29.08
X107.38Y-31.62
X107.38Y-34.16
X107.38Y-36.7
X107.38Y-39.24
X122.62Y-24.0
X122.62Y-26.54
X122.62Y-29.08
X122.62Y-31.62
X122.62Y-34.16
X122.62Y-36.7
X122.62Y-39.24
T2
X61.5Y-31.19
X61.5Y-33.73
X61.5Y-36.27
X61.5Y-38.81
X132.375Y-31.9
X132.375Y-34.4
X132.375Y-36.9
X146.875Y-31.9
X146.875Y-36.9
T3
X71.19Y-55.94
X71.19Y-75.01
X77.54Y-53.4
X77.54Y-72.47
X90.24Y-55.94
X90.24Y-75.01
X96.59Y-53.4
X96.59Y-72.47
X109.29Y-55.94
X109.3Y-75.0
X115.64Y-53.4
X115.65Y-72.46
X128.36Y-75.0
X134.71Y-72.46
T3
G00X139.225Y-28.8
M15
G01X140.525Y-28.8
M16
G05
G00X139.225Y-40.0
M15
G01X140.525Y-40.0
M16
G05
M30
